<svg id="Capa_1" enable-background="new 0 0 512 512" height="512" viewBox="0 0 512 512" width="512" xmlns="http://www.w3.org/2000/svg"><g><g><g><g><path d="m176 511.973c-41.355 0-75-33.645-75-75s33.645-75 75-75c15.029 0 29.533 4.433 41.944 12.818 6.864 4.638 8.669 13.962 4.032 20.826-4.639 6.864-13.962 8.671-20.827 4.031-7.433-5.021-16.129-7.676-25.149-7.676-24.813 0-45 20.187-45 45s20.187 45 45 45c9.185 0 16.907-2.73 22.954-8.115 1.178-1.049 2.308-2.215 3.354-3.463 5.325-6.348 14.785-7.176 21.132-1.852s7.176 14.785 1.852 21.133c-1.976 2.354-4.123 4.569-6.383 6.583-11.545 10.282-26.381 15.715-42.909 15.715z"/></g><g><path d="m458.226 512c-23.187 0-24.969-.595-26.945-1.253-4.915-1.639-8.592-5.367-10.088-10.23-2.525-8.212 1.236-13.138 8.731-22.951 5.97-7.815 17.081-22.364 35.704-48.974 5.15-7.359 8.606-14.146 10.029-19.682l.334-2.615c-.414-7.968-7.027-14.322-15.097-14.322-7.209 0-13.447 5.118-14.832 12.17-1.597 8.13-9.482 13.422-17.609 11.828-8.129-1.596-13.425-9.48-11.828-17.609 4.141-21.085 22.759-36.389 44.27-36.389 24.878 0 45.117 20.239 45.117 45.116 0 .636-.04 1.271-.121 1.902l-.582 4.553c-.063.499-.152.995-.267 1.485-2.2 9.49-7.191 19.841-14.835 30.764-11.137 15.911-19.647 27.605-26.014 36.168 9.732-.032 20.977-.125 31.618-.259 8.288-.122 15.084 6.526 15.188 14.811.104 8.283-6.527 15.083-14.811 15.188-16.725.209-28.959.299-37.962.299z"/></g><path d="m323.8 511.973c-41.355 0-75-33.645-75-75s33.645-75 75-75 75 33.645 75 75-33.645 75-75 75zm0-120c-24.813 0-45 20.187-45 45s20.187 45 45 45 45-20.187 45-45-20.187-45-45-45z"/></g></g><g><path d="m72 255c0-37.173 19.571-70.962 50.406-89.707 4.947-58.885 54.453-105.293 114.594-105.293 11.312 0 22.55 1.688 33.32 4.96 15.921-15.333 35.62-26.155 57.031-31.388-17.637-20.669-43.842-33.572-72.351-33.572-31.574 0-60.654 15.666-78.176 41.062-12.684-7.208-27.059-11.062-41.824-11.062-46.869 0-85 38.131-85 85 0 3.053.164 6.098.491 9.123-29.661 10.213-50.491 38.328-50.491 70.877 0 40.708 32.606 73.92 73.069 74.951-.699-4.885-1.069-9.875-1.069-14.951z"/><path d="m451.586 163.595c.275-2.882.414-5.751.414-8.595 0-52.383-42.617-95-95-95-31.575 0-60.655 15.666-78.176 41.062-12.684-7.208-27.059-11.062-41.824-11.062-46.869 0-85 38.131-85 85 0 3.053.164 6.098.491 9.124-29.661 10.212-50.491 38.327-50.491 70.876 0 41.355 33.645 75 75 75h250c46.869 0 85-38.131 85-85 0-38.235-25.063-70.837-60.414-81.405z"/></g></g></svg>