 <svg version="1.0" xmlns="http://www.w3.org/2000/svg" width="700.000000pt" height="652.000000pt" viewBox="0 0 700.000000 652.000000" preserveAspectRatio="xMidYMid meet">
<metadata>
Created by potrace 1.12, written by Peter Selinger 2001-2015
</metadata>
<g transform="translate(0.000000,652.000000) scale(0.100000,-0.100000)" fill="#000000" stroke="none">
<path d="M3091 6466 c-18 -6 -45 -26 -60 -45 l-26 -34 0 -428 0 -427 25 -27
c28 -30 78 -55 111 -55 40 0 89 32 114 75 l25 42 0 397 c0 298 -3 402 -12 419
-23 40 -53 69 -87 83 -37 16 -42 16 -90 0z"></path>
<path d="M997 5586 c-68 -25 -103 -90 -87 -163 7 -31 55 -83 292 -320 l284
-283 60 0 c83 0 116 26 135 108 15 68 3 84 -285 371 -151 151 -280 277 -288
281 -29 16 -75 19 -111 6z"></path>
<path d="M5205 5590 c-28 -9 -378 -347 -541 -523 -53 -57 -54 -60 -54 -117 0
-54 3 -62 34 -93 20 -21 47 -36 67 -39 79 -12 87 -6 386 295 l283 283 0 62 c0
57 -3 64 -35 97 -20 19 -43 35 -53 35 -9 0 -26 2 -37 4 -11 3 -34 1 -50 -4z"></path>
<path d="M2925 5258 c-161 -24 -359 -73 -440 -108 -186 -79 -267 -121 -381
-195 -46 -30 -92 -61 -101 -69 -10 -8 -38 -31 -63 -51 -78 -63 -231 -217 -293
-295 -143 -179 -258 -387 -330 -595 -25 -72 -57 -197 -76 -295 -59 -307 -8
-732 121 -1020 36 -80 110 -224 129 -252 11 -14 19 -29 19 -32 0 -5 90 -137
100 -146 3 -3 35 -41 72 -85 192 -231 459 -426 742 -544 86 -36 182 -69 236
-81 19 -5 62 -15 96 -24 190 -47 540 -50 774 -5 116 23 160 63 160 148 0 46
-13 75 -50 109 -22 21 -33 22 -100 19 -41 -2 -129 -12 -195 -20 -279 -38 -522
-8 -815 101 -421 157 -752 490 -930 937 -25 63 -50 154 -68 245 -6 30 -15 79
-21 108 -14 69 -14 397 -1 476 15 83 62 289 70 301 3 6 12 28 19 50 22 65 97
221 130 269 17 25 31 47 31 51 0 3 28 43 62 88 178 236 411 416 673 521 39 15
78 32 87 37 10 5 26 9 36 9 10 0 22 4 28 8 9 9 42 17 199 49 100 20 466 23
565 4 198 -37 290 -67 451 -145 197 -95 313 -178 468 -336 173 -178 322 -438
387 -675 53 -195 66 -312 61 -515 -5 -161 -9 -203 -35 -330 -11 -57 -68 -223
-93 -272 -24 -47 -24 -79 0 -126 45 -86 165 -103 225 -31 27 32 95 203 124
314 41 150 56 287 56 485 0 244 -18 363 -91 588 -58 180 -109 283 -238 477
-96 143 -260 326 -385 427 -65 53 -215 158 -225 158 -4 0 -19 9 -35 20 -37 26
-191 101 -265 129 -33 13 -69 27 -80 31 -71 29 -229 63 -403 89 -85 13 -321
12 -407 -1z"></path>
<path d="M505 3500 c-355 -5 -392 -7 -417 -23 -25 -17 -53 -63 -59 -97 -11
-56 34 -127 94 -149 18 -7 167 -11 418 -11 427 0 437 1 478 58 66 94 10 211
-109 225 -8 1 -190 0 -405 -3z"></path>
<path d="M5705 3500 c-441 -6 -425 -3 -464 -84 -26 -56 -26 -56 -1 -109 14
-29 34 -51 59 -65 38 -22 47 -22 435 -22 454 0 452 0 496 82 48 90 -9 185
-120 201 -8 1 -191 0 -405 -3z"></path>
<path d="M5760 2300 c-35 -35 -40 -46 -40 -85 0 -24 7 -70 15 -102 9 -32 20
-76 25 -98 4 -22 25 -103 45 -180 20 -77 40 -160 46 -185 5 -25 14 -61 19 -80
28 -117 42 -168 49 -195 5 -16 25 -97 45 -180 38 -154 51 -208 66 -260 9 -34
108 -429 121 -487 36 -156 66 -264 80 -285 17 -28 80 -63 113 -63 73 0 127 59
151 167 9 43 21 89 25 103 4 14 12 43 18 65 6 22 15 58 21 80 6 22 31 126 57
230 25 105 50 204 54 220 5 17 13 49 19 73 6 23 15 59 21 80 5 20 21 87 35
147 15 61 30 121 35 135 4 14 13 50 20 80 6 30 16 69 21 85 5 17 20 80 34 140
31 132 31 130 56 225 58 213 69 276 57 313 -21 62 -70 97 -135 97 -74 0 -122
-50 -144 -150 -9 -42 -85 -350 -99 -402 -12 -44 -28 -106 -42 -163 -5 -22 -13
-53 -18 -70 -4 -16 -15 -59 -24 -95 -8 -36 -23 -94 -31 -130 -22 -87 -33 -133
-44 -177 -33 -135 -70 -274 -76 -282 -13 -21 -21 -10 -33 46 -8 32 -17 72 -22
88 -5 17 -13 49 -19 73 -13 51 -29 115 -42 162 -10 41 -66 266 -80 325 -19 76
-22 88 -91 360 -16 66 -34 137 -39 158 -5 20 -13 54 -19 75 -5 20 -12 51 -16
67 -16 72 -72 115 -149 115 -39 0 -50 -5 -85 -40z"></path>
<path d="M4121 2297 c-87 -43 -82 11 -79 -852 2 -619 6 -766 17 -790 7 -16 17
-39 21 -50 51 -135 153 -266 283 -362 113 -82 284 -143 405 -143 94 0 273 49
334 91 14 11 29 19 34 19 13 0 116 82 162 129 83 86 150 201 179 306 31 111
33 161 33 845 0 751 1 739 -52 786 -78 71 -189 39 -225 -64 -10 -29 -13 -193
-13 -764 0 -711 0 -729 -21 -783 -66 -176 -227 -284 -424 -284 -55 0 -141 15
-190 35 -38 15 -132 83 -163 118 -35 41 -64 92 -87 158 -13 37 -15 148 -15
774 0 789 2 762 -52 811 -20 18 -79 44 -97 43 -3 -1 -26 -11 -50 -23z"></path>
<path d="M1203 1607 c-239 -238 -285 -288 -293 -320 -11 -51 5 -104 42 -139
26 -24 38 -28 91 -28 l61 0 283 283 c316 314 320 320 288 403 -23 61 -59 84
-131 84 l-58 0 -283 -283z"></path>
<path d="M3081 1257 c-83 -43 -82 -33 -79 -509 l3 -416 25 -27 c74 -79 172
-71 224 17 l26 45 0 390 c0 419 -2 434 -52 479 -20 18 -78 45 -97 44 -3 0 -26
-11 -50 -23z"></path>
</g>
</svg>